<?xml version="1.0" standalone="no"?>
<!DOCTYPE svg PUBLIC "-//W3C//DTD SVG 20010904//EN"
 "http://www.w3.org/TR/2001/REC-SVG-20010904/DTD/svg10.dtd">
<svg version="1.0" xmlns="http://www.w3.org/2000/svg"
 width="500.000000pt" height="500.000000pt" viewBox="0 0 500.000000 500.000000"
 preserveAspectRatio="xMidYMid meet">

<g transform="translate(0.000000,500.000000) scale(0.100000,-0.100000)"
fill="#000000" stroke="none">
<path d="M2536 4629 c-24 -19 -28 -31 -51 -189 -17 -113 -19 -214 -5 -241 19
-34 49 -23 69 24 35 83 76 349 60 393 -11 30 -44 36 -73 13z"/>
<path d="M1028 3928 c-8 -7 -20 -28 -26 -46 -10 -30 -9 -36 14 -57 15 -14 47
-37 73 -51 72 -43 270 -174 276 -185 11 -16 71 -10 88 9 23 25 22 71 0 79 -10
3 -53 31 -97 62 -132 94 -277 190 -295 196 -9 3 -24 -1 -33 -7z"/>
<path d="M2515 3888 c-53 -7 -169 -39 -201 -55 -10 -6 -33 -13 -51 -16 -18 -4
-72 -26 -120 -50 -48 -24 -99 -46 -113 -50 -38 -9 -159 -92 -215 -147 -68 -65
-113 -111 -135 -135 -24 -28 -90 -133 -90 -145 0 -6 -4 -18 -10 -28 -37 -67
-95 -223 -116 -311 -20 -88 -15 -202 16 -356 28 -142 37 -170 84 -259 39 -76
169 -226 195 -226 6 0 11 -6 11 -14 0 -8 3 -16 8 -18 9 -4 194 -210 225 -251
12 -16 34 -40 50 -55 15 -14 27 -32 27 -38 0 -6 7 -18 16 -25 55 -45 97 -159
98 -266 1 -61 -2 -75 -20 -92 -42 -39 -39 -176 6 -310 10 -31 21 -87 24 -126
18 -205 42 -306 96 -397 67 -112 124 -152 262 -182 124 -27 275 -12 395 40 17
8 35 14 39 14 5 0 46 19 92 42 95 49 118 77 132 165 5 32 19 114 30 183 11 69
22 168 25 221 4 73 11 109 30 153 40 91 34 138 -30 206 -47 51 -51 88 -15 159
17 32 30 61 30 63 0 10 102 183 113 193 13 11 37 53 76 131 15 28 38 65 54 83
15 18 27 37 27 43 0 6 15 31 34 57 43 59 68 110 94 191 23 73 72 330 72 381 0
19 7 59 15 89 16 58 21 220 10 286 -11 61 -35 145 -57 194 -42 93 -79 164
-108 203 -31 43 -148 147 -165 147 -6 0 -33 17 -61 38 -27 20 -77 50 -109 65
-33 16 -73 35 -90 44 -16 9 -62 26 -102 39 -39 12 -102 39 -140 59 -95 51
-119 56 -328 67 -33 2 -82 0 -110 -4z m285 -63 c19 -7 49 -16 65 -20 17 -4 57
-23 90 -44 33 -21 92 -48 130 -61 39 -12 75 -26 80 -30 6 -4 24 -10 40 -14 17
-4 39 -15 50 -25 11 -10 63 -44 115 -76 113 -70 208 -150 216 -181 3 -12 12
-25 20 -28 8 -3 14 -12 14 -20 0 -26 23 -66 37 -66 8 0 13 -12 13 -35 0 -19 9
-56 19 -84 24 -59 46 -248 36 -305 -4 -23 -10 -66 -15 -96 -4 -30 -13 -82 -18
-115 -6 -33 -15 -94 -21 -135 -13 -87 -44 -198 -72 -255 -40 -80 -79 -146 -95
-163 -10 -9 -27 -39 -40 -67 -12 -27 -34 -67 -48 -88 -14 -21 -26 -42 -26 -47
0 -4 -19 -32 -43 -62 -64 -80 -90 -125 -124 -213 -37 -97 -53 -162 -53 -214 0
-25 -7 -44 -20 -56 -11 -10 -20 -24 -20 -31 0 -15 -53 -61 -109 -94 -23 -14
-58 -35 -78 -48 -47 -31 -58 -19 -59 66 -1 37 -5 139 -8 227 -10 224 -26 262
-83 195 -34 -41 -73 -99 -73 -109 0 -4 -11 -19 -23 -33 l-24 -26 -34 46 c-34
46 -82 82 -94 70 -8 -8 -8 -129 1 -332 l7 -159 -46 6 c-89 12 -198 83 -234
152 -13 23 -14 48 -9 127 6 83 4 107 -14 167 -12 38 -28 75 -36 82 -8 6 -14
18 -14 27 0 35 -45 104 -101 156 -32 30 -59 59 -59 63 0 5 -14 24 -31 43 -89
101 -143 160 -231 253 -103 109 -168 186 -168 201 0 5 -8 27 -19 50 -37 80
-74 325 -68 441 5 79 55 257 91 322 8 15 28 58 44 94 16 36 42 80 58 98 48 54
190 194 226 222 39 32 237 128 287 141 20 5 52 13 71 18 20 5 61 20 91 34 31
13 74 28 95 32 22 3 46 11 54 16 20 12 216 -1 260 -17z m19 -2493 c1 -73 5
-141 10 -151 15 -28 2 -60 -28 -67 -14 -4 -31 -10 -36 -15 -13 -10 -137 -15
-151 -6 -7 4 -12 35 -11 79 0 40 -3 127 -7 192 l-8 119 37 -37 c39 -39 57 -40
101 -7 22 16 25 20 59 86 l20 38 7 -49 c3 -27 7 -109 7 -182z m433 -67 c9 -21
8 -33 -11 -71 -38 -75 -97 -127 -203 -178 -147 -70 -196 -81 -383 -80 -121 0
-173 4 -213 17 -64 20 -160 73 -184 102 -21 25 -48 100 -48 133 l0 25 20 -23
c11 -13 20 -26 20 -29 0 -4 28 -25 63 -48 138 -91 339 -111 539 -55 132 37
217 83 302 167 37 36 72 65 77 65 5 0 15 -11 21 -25z m-52 -275 c0 -24 -97
-90 -170 -116 -25 -9 -66 -25 -92 -35 -66 -27 -179 -49 -250 -49 -60 0 -264
35 -283 49 -5 4 -29 14 -53 21 -48 15 -47 14 -56 53 l-7 28 59 -31 c159 -82
418 -83 627 -1 44 17 84 31 90 31 5 0 35 16 65 35 63 41 70 42 70 15z m-19
-148 c-17 -32 -178 -118 -262 -140 -133 -37 -235 -45 -346 -28 -147 23 -235
55 -241 88 -3 15 1 16 30 7 97 -30 155 -40 273 -45 131 -7 217 4 346 41 44 12
149 61 159 74 8 9 45 29 48 26 2 -2 -1 -12 -7 -23z m-22 -125 c-2 -1 -23 -17
-45 -34 -163 -126 -396 -179 -600 -137 -94 19 -125 34 -148 69 -20 31 -16 41
12 26 39 -21 169 -50 252 -56 58 -5 115 -2 180 9 127 20 191 42 275 93 38 23
72 40 74 37 2 -2 2 -5 0 -7z m-54 -162 c-22 -19 -43 -34 -47 -35 -4 0 -26 -13
-50 -28 -122 -81 -292 -111 -454 -81 -52 9 -133 53 -121 65 2 2 28 -2 58 -10
68 -17 215 -20 303 -6 77 12 171 46 266 95 83 43 95 43 45 0z"/>
<path d="M4248 3873 c-7 -10 -49 -45 -93 -78 -44 -33 -84 -65 -88 -72 -4 -7
-37 -33 -72 -59 -70 -50 -84 -83 -44 -104 25 -14 36 -7 164 98 51 42 120 99
154 126 41 34 61 57 61 72 0 36 -59 48 -82 17z"/>
<path d="M4590 2733 c-80 -4 -250 -23 -265 -29 -22 -9 -25 -32 -7 -54 17 -20
19 -20 127 -5 61 8 144 15 185 16 106 1 125 8 125 44 0 29 -1 30 -55 31 -30 0
-80 -1 -110 -3z"/>
<path d="M925 2653 c-22 -2 -98 -12 -170 -24 -102 -16 -134 -25 -147 -41 -23
-27 -23 -61 1 -82 18 -17 29 -17 128 -7 104 11 226 26 305 37 54 8 83 34 74
67 -12 49 -59 61 -191 50z"/>
<path d="M4048 1730 l-23 -18 40 -36 c22 -19 49 -44 60 -54 11 -10 31 -25 45
-32 14 -7 48 -28 77 -47 55 -36 89 -40 106 -12 12 19 -1 36 -44 60 -78 42
-140 83 -163 106 -15 14 -37 32 -51 39 -21 11 -28 10 -47 -6z"/>
<path d="M1395 1694 c-37 -27 -169 -149 -277 -255 -106 -105 -108 -107 -97
-138 6 -17 17 -31 23 -31 24 0 94 59 250 210 156 152 168 170 146 211 -13 23
-19 23 -45 3z"/>
</g>
</svg>
